<?xml version="1.0" encoding="UTF-8" standalone="no"?>
<!-- Copyright 2017 mathsisfun.com -->

<svg
   xmlns:dc="http://purl.org/dc/elements/1.1/"
   xmlns:cc="http://creativecommons.org/ns#"
   xmlns:rdf="http://www.w3.org/1999/02/22-rdf-syntax-ns#"
   xmlns:svg="http://www.w3.org/2000/svg"
   xmlns="http://www.w3.org/2000/svg"
   xmlns:sodipodi="http://sodipodi.sourceforge.net/DTD/sodipodi-0.dtd"
   xmlns:inkscape="http://www.inkscape.org/namespaces/inkscape"
   width="315.118"
   height="124.96"
   version="1.1"
   id="svg50"
   sodipodi:docname="interior-exterior-angles.svg"
   inkscape:version="0.92.1 r15371">
  <metadata
     id="metadata54">
    <rdf:RDF>
      <cc:Work
         rdf:about="">
        <dc:format>image/svg+xml</dc:format>
        <dc:type
           rdf:resource="http://purl.org/dc/dcmitype/StillImage" />
      </cc:Work>
    </rdf:RDF>
  </metadata>
  <sodipodi:namedview
     pagecolor="#ffffff"
     bordercolor="#666666"
     borderopacity="1"
     objecttolerance="10"
     gridtolerance="10"
     guidetolerance="10"
     inkscape:pageopacity="0"
     inkscape:pageshadow="2"
     inkscape:window-width="640"
     inkscape:window-height="480"
     id="namedview52"
     showgrid="false"
     inkscape:current-layer="svg50" />
  <defs
     id="defs20">
    <marker
       id="id6"
       style="overflow:visible"
       orient="auto">
      <path
         transform="matrix(0.4,0,0,0.4,4,0)"
         style="fill:#ff4141;stroke:#ff4141;stroke-width:1pt"
         d="M 0,0 5,-5 -12.5,0 5,5 Z"
         id="path2"
         inkscape:connector-curvature="0" />
    </marker>
    <marker
       id="id5"
       style="overflow:visible"
       orient="auto">
      <path
         transform="matrix(-0.4,0,0,-0.4,-4,0)"
         style="fill:#ff4141;stroke:#ff4141;stroke-width:1pt"
         d="M 0,0 5,-5 -12.5,0 5,5 Z"
         id="path5"
         inkscape:connector-curvature="0" />
    </marker>
    <marker
       id="id2"
       style="overflow:visible"
       orient="auto">
      <path
         transform="matrix(-0.4,0,0,-0.4,-4,0)"
         style="stroke:#000000;stroke-width:1pt"
         d="M 0,0 5,-5 -12.5,0 5,5 Z"
         id="path8"
         inkscape:connector-curvature="0" />
    </marker>
    <marker
       id="id1"
       style="overflow:visible"
       orient="auto">
      <path
         transform="matrix(0.4,0,0,0.4,4,0)"
         style="stroke:#000000;stroke-width:1pt"
         d="M 0,0 5,-5 -12.5,0 5,5 Z"
         id="path11"
         inkscape:connector-curvature="0" />
    </marker>
    <marker
       id="id3"
       style="overflow:visible"
       orient="auto">
      <path
         transform="matrix(0.4,0,0,0.4,4,0)"
         style="fill:#4e9a06;stroke:#4e9a06;stroke-width:1pt"
         d="M 0,0 5,-5 -12.5,0 5,5 Z"
         id="path14"
         inkscape:connector-curvature="0" />
    </marker>
    <marker
       id="id4"
       style="overflow:visible"
       orient="auto">
      <path
         transform="matrix(-0.4,0,0,-0.4,-4,0)"
         style="fill:#4e9a06;stroke:#4e9a06;stroke-width:1pt"
         d="M 0,0 5,-5 -12.5,0 5,5 Z"
         id="path17"
         inkscape:connector-curvature="0" />
    </marker>
  </defs>
  <path
     inkscape:connector-curvature="0"
     id="path22"
     d="m 140.635,76.9686 a 81,78.9 0 0 1 87.6,-26.4 81,78.9 0 0 1 56.8,70.1004"
     style="overflow:visible;fill:none;stroke:#000000;stroke-width:1.62;marker-start:url(#id1);marker-end:url(#id2)" />
  <text
     id="text24"
     style="font-size:18.6px;font-family:'Comic Sans MS';text-align:center;text-anchor:middle;overflow:visible;fill:#000000;stroke-width:3.94"
     y="2479.47"
     x="3679.73" />
  <path
     inkscape:connector-curvature="0"
     id="path26"
     d="m 212.235,123.619 -211.3,0.1 V 1.6195 l 211.3,121.9995"
     style="overflow:visible;fill:none;stroke:#0169c9;stroke-width:1.87;stroke-miterlimit:4;stroke-dasharray:none"
     sodipodi:nodetypes="cccc" />
  <path
     inkscape:connector-curvature="0"
     id="path28"
     d="m 163.535,120.969 a 37.9,37.9 0 0 1 38.3,-36.0004 37.9,37.9 0 0 1 37.5,36.8004"
     style="overflow:visible;fill:none;stroke:#ff9900;stroke-width:1.62;marker-start:url(#id3);marker-end:url(#id4)" />
  <path
     inkscape:connector-curvature="0"
     id="path30"
     d="m 123.335,121.569 a 81,78.9 0 0 1 14.1,-40.2004"
     style="overflow:visible;fill:none;stroke:#ff4141;stroke-width:1.62;marker-start:url(#id6);marker-end:url(#id5)" />
  <ellipse
     id="ellipse32"
     style="overflow:visible;fill:#ffffff;stroke-width:1.28"
     ry="15.3"
     rx="18"
     cy="49.7686"
     cx="229.335" />
  <text
     id="text34"
     style="font-size:16.700001px;font-family:'Comic Sans MS';text-align:center;text-anchor:middle;overflow:visible;fill:#000000;stroke-width:3.94"
     y="55.7686"
     x="231.635">150°</text>
  <ellipse
     id="ellipse36"
     style="overflow:visible;fill:#ffffff;stroke-width:0.87"
     ry="9.4"
     rx="13.5"
     cy="100.669"
     cx="128.535" />
  <text
     id="text38"
     style="font-size:16.700001px;font-family:'Comic Sans MS';text-align:center;text-anchor:middle;overflow:visible;fill:#ff4141;stroke-width:3.94"
     y="106.769"
     x="129.235">30°</text>
  <ellipse
     id="ellipse40"
     style="overflow:visible;fill:#ffffff;stroke-width:1.22"
     ry="15.3"
     rx="18.8"
     cy="84.3686"
     cx="202.335" />
  <text
     id="text42"
     style="font-size:16.700001px;font-family:'Comic Sans MS';text-align:center;text-anchor:middle;overflow:visible;fill:#ff9900;stroke-width:3.94"
     y="92.5686"
     x="205.335">180°</text>
  <text
     id="text44"
     style="font-style:italic;font-size:16px;font-family:'Comic Sans MS';text-align:center;text-anchor:middle;overflow:visible;fill:#000000;stroke-width:10.06"
     y="33.1686"
     x="232.335">Exterior Angle</text>
  <text
     id="text46"
     style="font-style:italic;font-size:16px;font-family:'Comic Sans MS';text-align:center;text-anchor:middle;overflow:visible;fill:#ff4141;stroke-width:10.06"
     y="90.9686"
     x="61.935">Interior Angle</text>
  <path
     style="fill:none;fill-rule:evenodd;stroke:#19aeff;stroke-width:1.829342;stroke-linecap:butt;stroke-linejoin:miter;stroke-miterlimit:4;stroke-dasharray:7.317368,7.317368;stroke-opacity:1;stroke-dashoffset:0"
     d="M 212.235,123.619 H 315.118"
     id="path955"
     inkscape:connector-curvature="0" />
</svg>
