<?xml version="1.0" encoding="UTF-8" standalone="no"?>
<!-- Copyright 2017 mathsisfun.com -->
<svg xmlns="http://www.w3.org/2000/svg" width="309.9" height="169.6" version="1.1">
<defs>
<marker id="id5" style="overflow:visible;" orient="auto">
<path transform="matrix(0.4,0,0,0.4,4,0)" style="fill:#ff4141; stroke:#ff4141; stroke-width:1pt;" d="M 0,0 5,-5 -12.5,0 5,5 Z"/>
</marker>
<marker id="id6" style="overflow:visible;" orient="auto">
<path transform="matrix(-0.4,0,0,-0.4,-4,0)" style="fill:#ff4141; stroke:#ff4141; stroke-width:1pt;" d="M 0,0 5,-5 -12.5,0 5,5 Z"/>
</marker>
<marker id="id2" style="overflow:visible;" orient="auto">
<path transform="matrix(-0.4,0,0,-0.4,-4,0)" style="stroke:black; stroke-width:1pt;" d="M 0,0 5,-5 -12.5,0 5,5 Z"/>
</marker>
<marker id="id1" style="overflow:visible;" orient="auto">
<path transform="matrix(0.4,0,0,0.4,4,0)" style="stroke:black; stroke-width:1pt;" d="M 0,0 5,-5 -12.5,0 5,5 Z"/>
</marker>
<marker id="id3" style="overflow:visible;" orient="auto">
<path transform="matrix(0.4,0,0,0.4,4,0)" style="fill:#4e9a06; stroke:#4e9a06; stroke-width:1pt;" d="M 0,0 5,-5 -12.5,0 5,5 Z"/>
</marker>
<marker id="id4" style="overflow:visible;" orient="auto">
<path transform="matrix(-0.4,0,0,-0.4,-4,0)" style="fill:#4e9a06; stroke:#4e9a06; stroke-width:1pt;" d="M 0,0 5,-5 -12.5,0 5,5 Z"/>
</marker>
</defs>
<g transform="translate(5223.94,-295.681)">
<path transform="rotate(-30.4004)" style="marker-start:url(#id1); marker-end:url(#id2); overflow:visible; fill:none; stroke:black; stroke-width:1.62;" d="m -4553.3,-2261.6 a 81,78.9 0 0 1 71.9,8.1 81,78.9 0 0 1 36.6,60.8"/>
<text x="-1568.7" y="2794.1" style="font-family:'Comic Sans MS'; text-align:center; text-anchor:middle; font-size:18.6px; overflow:visible; fill:black; stroke-width:3.94;"></text>
<path style="overflow:visible; fill:none; stroke:#0169c9; stroke-width:1.87;" d="m -4914.6,343.8 -205.2,120.4 -103.3,-49.7 0.1,-59.6 98.3,-36.2 119.7,78"/>
<path transform="rotate(-30.4004)" style="marker-start:url(#id3); marker-end:url(#id4); overflow:visible; fill:none; stroke:#ff9900; stroke-width:1.62;" d="m -4566.4,-2192.4 a 37.9,37.9 0 0 1 38.3,-36 37.9,37.9 0 0 1 37.5,36.8"/>
<path transform="rotate(-30.4004)" style="marker-start:url(#id5); marker-end:url(#id6); overflow:visible; fill:none; stroke:#ff4141; stroke-width:1.62;" d="m -4606.6,-2191.8 a 81,78.9 0 0 1 53,-69.7"/>
<ellipse cx="-4482.5" cy="-2253.5" rx="18" ry="15.3" transform="rotate(-30.4004)" style="overflow:visible; fill:white; stroke-width:1.28;"/>
<text x="-5004.2" y="329.3" style="font-family:'Comic Sans MS'; text-align:center; text-anchor:middle; font-size:16.7px; overflow:visible; fill:black; stroke-width:3.94;">115°</text>
<ellipse cx="-4591" cy="-2233.4" rx="13.5" ry="9.4" transform="rotate(-30.4004)" style="overflow:visible; fill:white; stroke-width:0.87;"/>
<text x="-5086.6" y="402.9" style="font-family:'Comic Sans MS'; text-align:center; text-anchor:middle; font-size:16.7px; overflow:visible; fill:#ff4141; stroke-width:3.94;">65°</text>
<ellipse cx="-4507.8" cy="-2222.4" rx="18.8" ry="15.3" transform="rotate(-30.4004)" style="overflow:visible; fill:white; stroke-width:1.22;"/>
<text x="-5011.3" y="372.1" style="font-family:'Comic Sans MS'; text-align:center; text-anchor:middle; font-size:16.7px; overflow:visible; fill:#ff9900; stroke-width:3.94;">180°</text>
<text x="-5009.1" y="308.3" style="font-family:'Comic Sans MS'; text-align:center; text-anchor:middle; font-size:16px; font-style:italic; overflow:visible; fill:black; stroke-width:10.06;">Exterior Angle</text>
<text x="-5161.8" y="401.2" style="font-family:'Comic Sans MS'; text-align:center; text-anchor:middle; font-size:16px; font-style:italic; overflow:visible; fill:#ff4141; stroke-width:10.06;">Interior Angle</text>
</g>
</svg>
