<?xml version="1.0" encoding="utf-8"?>
<!-- Generator: Adobe Illustrator 22.0.1, SVG Export Plug-In . SVG Version: 6.00 Build 0)  -->
<!DOCTYPE svg PUBLIC "-//W3C//DTD SVG 1.1//EN" "http://www.w3.org/Graphics/SVG/1.1/DTD/svg11.dtd">
<svg version="1.1" id="Layer_1" xmlns="http://www.w3.org/2000/svg" xmlns:xlink="http://www.w3.org/1999/xlink" x="0px" y="0px"
   viewBox="0 0 283 64.8" style="enable-background:new 0 0 283 64.8;" xml:space="preserve">
<style type="text/css">
  .st0{fill:#1B365D;}
  .st1{fill:#009fad;}
</style>
<title>Asset 6</title>
<g>
  <path class="st0" d="M26.3,52l-1.8-5.8H12.4L10.5,52H0.4l14.3-39.2h7.4L36.4,52H26.3z M18.7,27.7l-3.5,10.4H22L18.7,27.7z"/>
  <path class="st0" d="M59.1,48.5c-5.3,5-13.7,5-19,0c-2.5-2.7-3.2-5.5-3.2-11.3s0.8-8.6,3.2-11.3c5.3-5,13.7-5,19,0
    c2.5,2.7,3.2,5.6,3.2,11.3S61.6,45.8,59.1,48.5z M52,31.1c-1.4-1.1-3.4-1.1-4.8,0c-1.2,1.1-1.3,3.2-1.3,6.2s0.2,5,1.3,6.2
    c1.4,1.1,3.4,1.1,4.8,0c1.2-1.2,1.3-3.2,1.3-6.2S53.2,32.2,52,31.1L52,31.1z"/>
  <path class="st0" d="M82.1,38h-5.9v14h-9.6V12.9h15.5c8.7,0,13.4,6.1,13.4,12.6S90.8,38,82.1,38z M81.6,21.5h-5.4v7.9h5.4
    c2.2,0.3,4.2-1.2,4.5-3.4c0.3-2.2-1.2-4.2-3.4-4.5C82.4,21.4,82,21.4,81.6,21.5L81.6,21.5z"/>
  <path class="st0" d="M111.5,52.3c-6,0-10.9-1.1-14.9-5.2l6.2-6.2c2,2,5.6,2.8,8.7,2.8c3.8,0,5.6-1.3,5.6-3.5
    c0.1-0.8-0.2-1.7-0.8-2.3c-0.7-0.6-1.6-1-2.6-1l-4.7-0.7c-3.5-0.5-6.1-1.7-7.9-3.5s-2.7-4.5-2.7-7.9c0-7.1,5.4-12.4,14.3-12.4
    c5.6,0,9.8,1.3,13.2,4.7l-6,6c-2.5-2.5-5.7-2.3-7.4-2.3c-3.4,0-4.7,1.9-4.7,3.6c0,0.7,0.3,1.3,0.8,1.8c0.7,0.7,1.7,1.1,2.7,1.1
    l4.7,0.7c3.5,0.5,6,1.6,7.7,3.2c2.1,2,2.9,4.9,2.9,8.6C126.6,48,119.8,52.3,111.5,52.3z"/>
  <path class="st1" d="M161.2,48.2c-5.7,5.6-14.9,5.6-20.6,0c-3.9-3.8-3.8-8.2-3.8-15.7s-0.1-11.9,3.8-15.7c5.7-5.6,14.9-5.6,20.6,0
    c3.9,3.9,3.7,8.2,3.7,15.7S165.1,44.3,161.2,48.2z M156.7,20.3c-3.2-3.2-8.4-3.2-11.6,0c0,0,0,0,0,0c-1.9,2.1-2.3,4.3-2.3,12.1
    s0.4,10.1,2.3,12.1c3.2,3.2,8.4,3.2,11.6,0c0,0,0,0,0,0c1.9-2.1,2.3-4.3,2.3-12.2S158.6,22.4,156.7,20.3z"/>
  <path class="st1" d="M188.7,52V35c0-4.3-2.5-6.2-5.6-6.2s-5.8,1.9-5.8,6.2v17h-5.6V24.1h5.5v2.8c1.9-2,4.6-3.2,7.4-3.1
    c2.5-0.1,5,0.8,6.9,2.5c2.1,2.1,2.8,4.7,2.8,7.9V52H188.7z"/>
  <path class="st1" d="M209.1,52c-5.3,0-7.6-3.6-7.6-7.7V12.9h5.6V44c0,2.1,0.8,3.2,3,3.2h2.5V52H209.1z"/>
  <path class="st1" d="M217.2,18.6v-5.9h5.9v5.9H217.2z M217.3,52V24.1h5.6V52H217.3z"/>
  <path class="st1" d="M247.4,52V35c0-4.3-2.5-6.2-5.6-6.2s-5.8,1.9-5.8,6.2v17h-5.6V24.1h5.5v2.8c1.9-2,4.6-3.2,7.4-3.1
    c2.5-0.1,5,0.8,6.9,2.5c2.1,2.1,2.8,4.7,2.8,7.9V52H247.4z"/>
  <path class="st1" d="M264.5,39.7c0,4.8,2.5,7.8,7.1,7.8c2.6,0.1,5.1-0.9,6.8-2.9l3.6,3.4c-2.6,3-6.5,4.5-10.5,4.3
    c-7,0-12.5-3.7-12.5-14.3c0-9,4.7-14.2,11.8-14.2c7.5,0,11.8,5.5,11.8,13.4v2.5L264.5,39.7z M276.2,32c-0.9-2.2-3.1-3.6-5.5-3.5
    c-2.4-0.1-4.6,1.3-5.5,3.5c-0.5,1.2-0.8,2.5-0.7,3.8H277C277,34.5,276.8,33.2,276.2,32z"/>
</g>
</svg>
