<svg xmlns="http://www.w3.org/2000/svg" viewBox="0 0 352.11 64.84"><defs><style>.cls-1{fill:#fff;}.cls-2{fill:#fff;}.cls-3{fill:#fff;}</style></defs><title>Asset 6</title><g id="Layer_2" data-name="Layer 2"><g id="Layer_1-2" data-name="Layer 1"><polygon class="cls-1" points="28.2 0 19.58 4.96 28.2 9.93 36.8 4.96 28.2 0"/><polygon class="cls-1" points="18.62 5.51 10.03 10.48 18.62 15.44 27.22 10.48 18.62 5.51"/><polygon class="cls-1" points="37.75 5.51 29.15 10.48 37.75 15.44 46.35 10.48 37.75 5.51"/><polygon class="cls-1" points="47.3 11.03 38.7 15.99 47.3 20.95 55.9 15.99 47.3 11.03"/><polygon class="cls-1" points="9.07 11.03 0.48 15.99 9.07 20.95 17.67 15.99 9.07 11.03"/><polygon class="cls-2" points="0 48.83 8.6 53.79 8.6 43.86 0 38.9 0 48.83"/><polygon class="cls-2" points="9.55 54.34 18.15 59.33 18.15 49.38 9.55 44.42 9.55 54.34"/><polygon class="cls-2" points="0 37.8 8.6 42.76 8.6 32.84 0 27.87 0 37.8"/><polygon class="cls-2" points="0 26.77 8.6 31.73 8.6 21.78 0 16.82 0 26.77"/><polygon class="cls-2" points="19.1 59.88 27.72 64.84 27.72 54.89 19.1 49.93 19.1 59.88"/><polygon class="cls-3" points="56.4 48.83 47.77 53.79 47.77 43.86 56.4 38.9 56.4 48.83"/><polygon class="cls-3" points="46.82 54.34 38.23 59.33 38.23 49.38 46.82 44.42 46.82 54.34"/><polygon class="cls-3" points="56.4 37.8 47.77 42.76 47.77 32.84 56.4 27.87 56.4 37.8"/><polygon class="cls-3" points="56.4 26.77 47.77 31.73 47.77 21.78 56.4 16.82 56.4 26.77"/><polygon class="cls-3" points="37.27 59.88 28.68 64.84 28.68 54.89 37.27 49.93 37.27 59.88"/><polygon class="cls-1" points="28.2 54.07 36.8 49.1 28.2 44.14 19.58 49.1 28.2 54.07"/><polygon class="cls-1" points="37.75 48.55 46.35 43.59 37.75 38.63 29.15 43.59 37.75 48.55"/><polygon class="cls-1" points="18.62 48.55 27.22 43.59 18.62 38.63 10.03 43.59 18.62 48.55"/><polygon class="cls-2" points="46.82 21.78 38.23 16.82 38.23 26.77 46.82 31.73 46.82 21.78"/><polygon class="cls-2" points="37.27 16.27 28.68 11.3 28.68 21.23 37.27 26.22 37.27 16.27"/><polygon class="cls-2" points="46.82 32.84 38.23 27.87 38.23 37.8 46.82 42.76 46.82 32.84"/><polygon class="cls-3" points="9.55 21.78 18.15 16.82 18.15 26.77 9.55 31.73 9.55 21.78"/><polygon class="cls-3" points="19.1 16.27 27.72 11.3 27.72 21.23 19.1 26.22 19.1 16.27"/><polygon class="cls-3" points="9.55 32.84 18.15 27.87 18.15 37.8 9.55 42.76 9.55 32.84"/><polygon class="cls-3" points="37.27 37.8 37.27 27.87 28.68 32.84 28.68 42.76 37.27 37.8"/><polygon class="cls-2" points="19.1 37.8 27.7 42.76 27.7 32.84 19.1 27.87 19.1 37.8"/><polygon class="cls-1" points="28.2 22.06 19.58 27.05 28.2 32.01 36.8 27.05 28.2 22.06"/><path class="cls-2" d="M95.87,52l-1.82-5.83H82L80.08,52H70L84.26,12.85h7.42L105.93,52ZM88.22,27.7,84.7,38.14h6.82Z"/><path class="cls-2" d="M128.65,48.54a13.82,13.82,0,0,1-19,0c-2.47-2.69-3.25-5.5-3.25-11.33s.77-8.63,3.25-11.33a13.82,13.82,0,0,1,19,0c2.47,2.69,3.24,5.55,3.24,11.33S131.12,45.84,128.65,48.54Zm-7.09-17.49a4,4,0,0,0-4.84,0c-1.16,1.15-1.32,3.24-1.32,6.16s.17,5,1.32,6.16a4,4,0,0,0,4.84,0c1.16-1.15,1.32-3.24,1.32-6.16S122.71,32.2,121.55,31.05Z"/><path class="cls-2" d="M151.64,38h-5.88V52h-9.62V12.85h15.51C160.32,12.85,165,19,165,25.44S160.32,38,151.64,38Zm-.44-16.55h-5.44V29.4h5.44a4,4,0,1,0,0-7.92Z"/><path class="cls-2" d="M181.06,52.33c-6,0-10.89-1.1-14.85-5.17L172.37,41c2,2,5.61,2.75,8.74,2.75,3.79,0,5.61-1.26,5.61-3.52a3.27,3.27,0,0,0-.77-2.31,4.37,4.37,0,0,0-2.58-1l-4.73-.66c-3.46-.5-6.1-1.65-7.86-3.46s-2.69-4.51-2.69-7.86c0-7.15,5.39-12.37,14.3-12.37,5.61,0,9.84,1.32,13.2,4.67l-6,6c-2.47-2.47-5.72-2.31-7.42-2.31-3.35,0-4.73,1.92-4.73,3.63a2.58,2.58,0,0,0,.77,1.81,4.41,4.41,0,0,0,2.7,1.15l4.73.66c3.52.5,6,1.6,7.7,3.24,2.09,2,2.92,4.95,2.92,8.58C196.18,48,189.31,52.33,181.06,52.33Z"/><path class="cls-1" d="M230.78,48.15a14.81,14.81,0,0,1-20.62,0c-3.85-3.85-3.79-8.19-3.79-15.73s-.05-11.88,3.79-15.73a14.81,14.81,0,0,1,20.62,0c3.85,3.85,3.74,8.19,3.74,15.73S234.63,44.3,230.78,48.15Zm-4.51-27.88a8.23,8.23,0,0,0-11.66,0c-1.92,2.09-2.31,4.29-2.31,12.15s.38,10.06,2.31,12.15a8.23,8.23,0,0,0,11.66,0c1.92-2.09,2.31-4.29,2.31-12.15S228.19,22.36,226.27,20.27Z"/><path class="cls-1" d="M258.28,52V35c0-4.34-2.47-6.21-5.61-6.21S246.9,30.72,246.9,35V52h-5.61V24.12h5.5v2.8a10,10,0,0,1,7.42-3.13,9.67,9.67,0,0,1,6.87,2.53c2.14,2.09,2.8,4.73,2.8,7.86V52Z"/><path class="cls-1" d="M278.63,52c-5.33,0-7.64-3.57-7.64-7.7V12.85h5.61V44c0,2.14.77,3.24,3,3.24h2.47V52Z"/><path class="cls-1" d="M286.71,18.62V12.68h5.94v5.94ZM286.88,52V24.12h5.61V52Z"/><path class="cls-1" d="M317,52V35c0-4.34-2.47-6.21-5.61-6.21s-5.77,1.92-5.77,6.21V52H300V24.12h5.5v2.8a10,10,0,0,1,7.42-3.13,9.67,9.67,0,0,1,6.87,2.53c2.14,2.09,2.8,4.73,2.8,7.86V52Z"/><path class="cls-1" d="M334,39.68c0,4.78,2.53,7.81,7.09,7.81a8.33,8.33,0,0,0,6.76-2.86L351.45,48A13.09,13.09,0,0,1,341,52.33c-7,0-12.54-3.68-12.54-14.3,0-9,4.67-14.24,11.82-14.24,7.48,0,11.82,5.5,11.82,13.42v2.47ZM345.78,32a5.75,5.75,0,0,0-5.5-3.52A5.82,5.82,0,0,0,334.73,32a8.82,8.82,0,0,0-.71,3.79h12.54A8.8,8.8,0,0,0,345.78,32Z"/></g></g></svg>
