<?xml version="1.0" encoding="utf-8"?>
<!-- Generator: Adobe Illustrator 22.0.1, SVG Export Plug-In . SVG Version: 6.00 Build 0)  -->
<!DOCTYPE svg PUBLIC "-//W3C//DTD SVG 1.1//EN" "http://www.w3.org/Graphics/SVG/1.1/DTD/svg11.dtd">
<svg version="1.1" id="Layer_1" xmlns="http://www.w3.org/2000/svg" xmlns:xlink="http://www.w3.org/1999/xlink" x="0px" y="0px"
	 viewBox="0 0 289 289" enable-background="new 0 0 289 289" xml:space="preserve">
<g>
	<path fill="#1b365d" d="M234.6,90.5H54.4c-2.8,0-5.1-2.3-5.1-5.1V67.4c0-2.8,2.3-5.1,5.1-5.1h180.2c2.8,0,5.1,2.3,5.1,5.1v17.9
		C239.7,88.2,237.4,90.5,234.6,90.5z"/>
	<path fill="#1b365d" d="M234.6,226.6H54.4c-2.8,0-5.1-2.3-5.1-5.1v-17.9c0-2.8,2.3-5.1,5.1-5.1h180.2c2.8,0,5.1,2.3,5.1,5.1v17.9
		C239.7,224.3,237.4,226.6,234.6,226.6z"/>
	<path fill="#1b365d" d="M234.6,158.5H54.4c-2.8,0-5.1-2.3-5.1-5.1v-17.9c0-2.8,2.3-5.1,5.1-5.1h180.2c2.8,0,5.1,2.3,5.1,5.1v17.9
		C239.7,156.3,237.4,158.5,234.6,158.5z"/>
</g>
</svg>
