<svg xmlns="http://www.w3.org/2000/svg" xmlns:xlink="http://www.w3.org/1999/xlink" viewBox="0 0 35.69 41.21"><defs><style>.cls-1{fill:none;}.cls-2{fill:#61ad00;}.cls-3{clip-path:url(#clip-path);}.cls-4{fill:#d0e7b2;}.cls-5{fill:#588328;}.cls-6{fill:#547e30;}</style><clipPath id="clip-path"><polygon class="cls-1" points="0 10.3 0 30.91 17.84 41.21 35.69 30.91 35.69 10.3 17.84 0 0 10.3"/></clipPath></defs><title>Asset 3</title><g id="Layer_2" data-name="Layer 2"><g id="Layer_1-2" data-name="Layer 1"><polygon class="cls-2" points="0 10.3 0 30.91 17.84 41.21 35.69 30.91 35.69 10.3 17.84 0 0 10.3"/><g class="cls-3"><polygon class="cls-4" points="25.49 36.83 8.03 34.74 8.03 8.55 25.49 6.46 25.49 36.83"/><polygon class="cls-5" points="25.49 36.83 29.3 34.63 29.3 14.42 25.49 6.46 25.49 36.83"/><polygon class="cls-1" points="9.94 32.75 9.94 10.54 23.01 9.24 23.01 34.05 9.94 32.75"/><polygon class="cls-5" points="12.95 14.81 9.94 14.98 9.94 10.54 12.95 10.24 12.95 14.81"/><polygon class="cls-6" points="17.76 14.52 14.51 14.71 14.51 10.09 17.76 9.76 17.76 14.52"/><polygon class="cls-5" points="23.01 14.2 19.46 14.42 19.46 9.6 23.01 9.24 23.01 14.2"/><polygon class="cls-6" points="12.95 20.89 9.94 20.91 9.94 16.47 12.95 16.33 12.95 20.89"/><polygon class="cls-5" points="17.76 20.86 14.51 20.88 14.51 16.25 17.76 16.1 17.76 20.86"/><polygon class="cls-6" points="23.01 20.82 19.46 20.84 19.46 16.02 23.01 15.86 23.01 20.82"/><polygon class="cls-6" points="12.95 26.97 9.94 26.83 9.94 22.39 12.95 22.41 12.95 26.97"/><polygon class="cls-6" points="17.76 27.19 14.51 27.04 14.51 22.42 17.76 22.44 17.76 27.19"/><polygon class="cls-5" points="23.01 27.44 19.46 27.27 19.46 22.45 23.01 22.47 23.01 27.44"/><polygon class="cls-6" points="12.95 33.05 9.94 32.75 9.94 28.31 12.95 28.49 12.95 33.05"/><polygon class="cls-6" points="23.01 34.05 19.46 33.7 19.46 28.88 23.01 29.09 23.01 34.05"/><polygon class="cls-6" points="12.95 10.24 9.94 10.54 12.95 10.24 12.95 10.24"/><polygon class="cls-5" points="9.94 14.98 12.95 14.81 12.95 14.43 9.94 10.54 9.94 14.98"/><polygon class="cls-6" points="17.76 9.76 14.51 10.09 14.51 10.09 17.76 9.76 17.76 9.76"/><polygon class="cls-5" points="17.76 14.52 17.76 9.76 14.51 10.09 14.51 14.71 17.76 14.52"/><polygon class="cls-6" points="19.46 9.6 19.46 9.6 23.01 9.24 19.46 9.6"/><polygon class="cls-5" points="9.94 20.91 12.95 20.89 12.95 16.33 9.94 16.47 9.94 20.91"/><polygon class="cls-5" points="14.51 20.88 17.76 20.86 17.76 20.66 14.51 16.45 14.51 20.88"/><polygon class="cls-5" points="9.94 26.83 12.95 26.97 12.95 22.41 9.94 22.39 9.94 26.83"/><polygon class="cls-5" points="14.51 27.04 17.76 27.19 17.76 22.44 14.51 22.42 14.51 27.04"/><polygon class="cls-5" points="19.46 27.27 23.01 27.44 19.46 22.85 19.46 27.27"/><polygon class="cls-5" points="9.94 32.75 12.95 33.05 12.95 28.49 9.94 28.31 9.94 32.75"/><polygon class="cls-5" points="19.46 33.7 23.01 34.05 23.01 29.09 19.46 28.88 19.46 33.7"/><polygon class="cls-1" points="23.01 34.05 19.46 33.7 19.46 28.88 23.01 29.09 23.01 34.05"/><polygon class="cls-1" points="12.95 14.81 9.94 14.98 9.94 10.54 12.95 10.24 12.95 14.81"/><polygon class="cls-1" points="23.01 14.2 19.46 14.42 19.46 9.6 23.01 9.24 23.01 14.2"/><path class="cls-5" d="M12.53,16.76v3.72H10.35V16.86l2.18-.1m.41-.43-3,.14v4.44l3,0V16.33Z"/><polygon class="cls-1" points="17.76 20.86 14.51 20.88 14.51 16.25 17.76 16.1 17.76 20.86"/><polygon class="cls-5" points="23.01 20.82 19.46 20.84 19.46 16.02 23.01 15.86 23.01 20.82"/><path class="cls-5" d="M10.35,22.8h2.18v3.72l-2.18-.1V22.8m-.41-.41v4.44l3,.14V22.41l-3,0Z"/><path class="cls-5" d="M14.92,22.83l2.44,0v3.92l-2.44-.11V22.83m-.41-.41V27l3.26.15V22.44l-3.26,0Z"/><polygon class="cls-1" points="23.01 27.44 19.46 27.27 19.46 22.45 23.01 22.47 23.01 27.44"/><polygon class="cls-1" points="12.95 33.05 9.94 32.75 9.94 28.31 12.95 28.49 12.95 33.05"/><polygon class="cls-5" points="17.76 35.91 14.51 35.52 14.51 28.58 17.76 28.78 17.76 35.91"/></g></g></g></svg>
