<svg xmlns="http://www.w3.org/2000/svg" xmlns:xlink="http://www.w3.org/1999/xlink" viewBox="0 0 35.69 41.65"><defs><style>.cls-1{fill:none;}.cls-2{fill:#d51f35;}.cls-3{clip-path:url(#clip-path);}.cls-4{fill:#900b1d;}.cls-5{fill:#fff;}.cls-6{fill:#ea8f9a;}.cls-7{fill:#fffce6;}</style><clipPath id="clip-path"><polygon class="cls-1" points="0 10.3 0 30.91 17.84 41.21 35.69 30.91 35.69 0 17.84 0 0 10.3"/></clipPath></defs><title>Asset 2</title><g id="Layer_2" data-name="Layer 2"><g id="Layer_1-2" data-name="Layer 1"><polygon class="cls-2" points="0 10.3 0 30.91 17.84 41.21 35.69 30.91 35.69 10.3 17.84 0 0 10.3"/><g class="cls-3"><path class="cls-4" d="M8.32,8.17s-1.83,2.16-1.56,4,2.65,3.3,2.65,3.3l15.26.77s2,.46,6.05-1.24,4.13-3.22,4.13-3.22A30.64,30.64,0,0,0,27.35,9a13.1,13.1,0,0,0-6.22.75S25.32,7.17,24.22,6s-4.78-.12-7.89,1.77a12.61,12.61,0,0,0-4.42,4.38l.72-5.08a6.88,6.88,0,0,0-2.31,2.45A12.79,12.79,0,0,0,9.71,13Z"/><path class="cls-5" d="M18.8,9a4.21,4.21,0,0,0-1.41.69,3.49,3.49,0,0,0-1,1.19,7.83,7.83,0,0,0-.86,3l-.2,0a3,3,0,0,1,1.06-1,7.5,7.5,0,0,1,1.27-.63,11.86,11.86,0,0,1,2.72-.72,12.13,12.13,0,0,1,5.54.57,13.87,13.87,0,0,0-2.74-.47,12.32,12.32,0,0,0-2.77.09,11.54,11.54,0,0,0-2.65.76,4.91,4.91,0,0,0-2.23,1.46l-.25.36,0-.41a8,8,0,0,1,.94-3.05A3.79,3.79,0,0,1,18.8,9Z"/><path class="cls-6" d="M10.61,14.77s-1.4,8.6-.17,13.45,3.22,13.44,3.22,13.44l4.58-.54s0-1.6,3.78-9.44S24.94,15,24.94,15a24,24,0,0,0-7-1.19A16.84,16.84,0,0,0,10.61,14.77Z"/><path class="cls-6" d="M13.17,24.73s1,5.82,8.58,5.21C28.62,29.38,31.82,27,31.82,27s-.88-4.7-4.92-5S19,25.39,19,25.39Z"/><path class="cls-6" d="M1.84,21.33S3.59,21.19,6.37,23a24.57,24.57,0,0,1,4.86,4.25l.32,2.36s-.66,2.69-4.62.37S1.84,21.33,1.84,21.33Z"/><path class="cls-4" d="M10.88,13.49a12.11,12.11,0,0,1,1.27,6.43,20.89,20.89,0,0,1-2.08,6.82,14.87,14.87,0,0,1-1.94-6.88c-.22-4.25.68-5.58.68-5.58Z"/><ellipse class="cls-7" cx="17.07" cy="21.26" rx="1.71" ry="2.27" transform="translate(-1.66 1.45) rotate(-4.62)"/><ellipse class="cls-7" cx="20.4" cy="21.27" rx="1.44" ry="1.99" transform="translate(-1.65 1.71) rotate(-4.62)"/><ellipse class="cls-4" cx="17.24" cy="21.65" rx="0.85" ry="1" transform="translate(-1.69 1.46) rotate(-4.62)"/><ellipse class="cls-4" cx="20.18" cy="21.6" rx="0.76" ry="0.89" transform="translate(-1.68 1.7) rotate(-4.62)"/><path class="cls-4" d="M18.71,26.32a7.08,7.08,0,0,1,3-3.1,11.91,11.91,0,0,1,4.15-1.39A5,5,0,0,1,30.06,23a7,7,0,0,1,2,4l0,.16-.14.08a22.18,22.18,0,0,1-5,2.05,23.32,23.32,0,0,1-5.3.87,9.93,9.93,0,0,1-5.26-1,5.78,5.78,0,0,1-2.91-4.31,5.7,5.7,0,0,0,3,4.07,9.6,9.6,0,0,0,5.11.8,22.86,22.86,0,0,0,5.18-.9,25.26,25.26,0,0,0,4.86-2l-.12.24a6.51,6.51,0,0,0-1.82-3.68,4.72,4.72,0,0,0-3.86-1.14,12.18,12.18,0,0,0-4.08,1.22A7,7,0,0,0,18.71,26.32Z"/><path class="cls-4" d="M17.77,16.55a4.4,4.4,0,0,0-2.9.68L14.81,17a4.4,4.4,0,0,1,2.86-.83Z"/><path class="cls-4" d="M19,17.63a4.4,4.4,0,0,1,2.89.72l.06-.21a4.4,4.4,0,0,0-2.85-.87Z"/><path class="cls-5" d="M8.07,17.44c.17-.45.7-.59,1.13-.64a4.9,4.9,0,0,1,1.36.08,2.55,2.55,0,0,1,2,1.8l.07.26-.25-.13a5.42,5.42,0,0,0-2.22-.62A2.27,2.27,0,0,0,9,18.44a1.27,1.27,0,0,0-.69.89,1.33,1.33,0,0,1,.63-1A2.34,2.34,0,0,1,10.14,18a5.2,5.2,0,0,1,2.34.59l-.18.14a2.28,2.28,0,0,0-.65-1.06,2.72,2.72,0,0,0-1.13-.59,4.74,4.74,0,0,0-1.3-.15A1.23,1.23,0,0,0,8.07,17.44Z"/><path class="cls-4" d="M3.33,23.08a10.28,10.28,0,0,1,4,2.07,6,6,0,0,1,2.08,4l.06.63-.28-.58a4.36,4.36,0,0,0-1.53-1.94,1.19,1.19,0,0,0-1.16,0c-.37.23-.27.78-.06,1.13a1.42,1.42,0,0,1-.24-.6.65.65,0,0,1,.24-.6,1.27,1.27,0,0,1,1.29-.11,3,3,0,0,1,1,.87,6.26,6.26,0,0,1,.68,1.12l-.22.05a6.09,6.09,0,0,0-2-3.86A12.41,12.41,0,0,0,5.38,24,9.92,9.92,0,0,0,3.33,23.08Z"/><path class="cls-4" d="M27.65,23.91l.1.05a.91.91,0,0,1,.29.49,1,1,0,0,0-.17-.61.84.84,0,0,0-.27-.22,1,1,0,0,0-.34-.11h0l-.13,0c-.29,0-.54.15-.54.35s.23.37.52.38S27.63,24.1,27.65,23.91Z"/><path class="cls-4" d="M22.83,24.37l-.07.08a.91.91,0,0,0-.1.56,1,1,0,0,1,0-.63.84.84,0,0,1,.18-.3,1,1,0,0,1,.28-.22h0l.12-.06c.27-.11.56,0,.63.15s-.09.43-.36.53A.48.48,0,0,1,22.83,24.37Z"/><circle class="cls-4" cx="13.48" cy="24.57" r="0.38" transform="translate(-1.94 1.17) rotate(-4.62)"/><path class="cls-4" d="M19.35,31.32a2.81,2.81,0,0,1-2.07.18,2.59,2.59,0,0,1-1.54-1.39,3.59,3.59,0,0,0,.74.69,3.22,3.22,0,0,0,.88.45,3,3,0,0,0,1,.16A5.35,5.35,0,0,0,19.35,31.32Z"/></g></g></g></svg>