<svg xmlns="http://www.w3.org/2000/svg" viewBox="0 0 35.69 41.21"><defs><style>.cls-1{fill:#009fad;}.cls-2{fill:#fff;}.cls-3{fill:#2a848b;}.cls-4{fill:#b4e7eb;}.cls-5{fill:none;}</style></defs><title>Asset 4</title><g id="Layer_2" data-name="Layer 2"><g id="Layer_1-2" data-name="Layer 1"><polygon class="cls-1" points="0 10.3 0 30.91 17.84 41.21 35.69 30.91 35.69 10.3 17.84 0 0 10.3"/><path class="cls-2" d="M17.91,36.13A8.3,8.3,0,0,1,16.7,36,17.66,17.66,0,0,1,14,34.65c-.48-.42,0-2.12,0-2.12l.52-1.76-.32,0s-.78,2.7-.82,3-.22.95,1,1.55a18,18,0,0,0,3.07,1h.82c.29,0,7.67-1,7.67-1a.13.13,0,0,0,.05-.1s0,0,0,0a1.11,1.11,0,0,1-.34.05S18.47,36.13,17.91,36.13Z"/><path class="cls-2" d="M20,34.64a1.21,1.21,0,0,1-1.13-1.05,8.82,8.82,0,0,1,.26-2.33l-4.68-.5L14,32.52s-.48,1.7,0,2.12A17.66,17.66,0,0,0,16.7,36a8.3,8.3,0,0,0,1.21.11c.56,0,7.69-.87,7.69-.87a1.11,1.11,0,0,0,.34-.05l-.22,0C23.79,34.84,23.95,35,20,34.64Z"/><rect class="cls-1" x="12.99" y="30.14" width="7.46" height="2.44"/><path class="cls-2" d="M31.15,30.85,29.48,14.39s0-.57-.37-.74-2.94-1-2.94-1L8.32,6.91c-.78-.16-1,.74-1,1.1s-.25,22.47-.25,22.47,0,1.31.82,1.35,22.51-.2,22.51-.2S31.25,31.79,31.15,30.85Z"/><path class="cls-3" d="M31,29.06,29.48,14.39s0-.57-.37-.74-2.94-1-2.94-1L8.32,6.91c-.78-.16-1,.74-1,1.1s-.25,20-.25,20Z"/><polygon class="cls-4" points="9.37 9.15 9.18 26.37 29.64 27.61 28.36 14.84 9.37 9.15"/><polygon class="cls-5" points="8.6 26.6 30.21 27.91 28.86 14.43 8.6 26.6"/></g></g></svg>
