<?xml version="1.0" encoding="utf-8"?>
<!-- Generator: Adobe Illustrator 22.0.1, SVG Export Plug-In . SVG Version: 6.00 Build 0)  -->
<!DOCTYPE svg PUBLIC "-//W3C//DTD SVG 1.1//EN" "http://www.w3.org/Graphics/SVG/1.1/DTD/svg11.dtd">
<svg version="1.1" id="Layer_1" xmlns="http://www.w3.org/2000/svg" xmlns:xlink="http://www.w3.org/1999/xlink" x="0px" y="0px"
	 viewBox="0 0 289 289" enable-background="new 0 0 289 289" xml:space="preserve">
<g>
	<path fill="#FFFFFF" d="M270.5,288.5h-252c-9.9,0-18-8.1-18-18v-252c0-9.9,8.1-18,18-18h252c9.9,0,18,8.1,18,18v252
		C288.5,280.4,280.4,288.5,270.5,288.5z"/>
	<path fill="#1b365d" d="M192.2,214.2c-14.1,0-27.4-7.6-31.9-16.3c0,0-7.6,30.1-9.2,35.9c-5.6,20.5-22.3,41.1-23.6,42.7
		c-0.9,1.2-2.9,0.8-3.1-0.8c-0.4-2.6-4.6-28.5,0.4-49.6c2.5-10.6,16.8-71.2,16.8-71.2s-4.2-8.3-4.2-20.7c0-19.4,11.2-33.8,25.2-33.8
		c11.9,0,17.6,8.9,17.6,19.6c0,12-7.6,29.8-11.5,46.3c-3.3,13.9,7,25.2,20.6,25.2c24.7,0,41.4-31.8,41.4-69.4
		c0-28.6-19.3-50-54.3-50c-39.6,0-64.3,29.5-64.3,62.5c0,11.4,3.4,19.4,8.6,25.6c2.4,2.9,2.8,4,1.9,7.3c-0.6,2.4-2.1,8.2-2.7,10.5
		c-0.9,3.3-3.5,4.5-6.5,3.3c-18.2-7.4-26.7-27.4-26.7-49.9c0-37.1,31.3-81.6,93.3-81.6c49.9,0,82.7,36.1,82.7,74.8
		C262.7,175.9,234.2,214.2,192.2,214.2z"/>
</g>
</svg>
