<?xml version="1.0" encoding="utf-8"?>
<!-- Generator: Adobe Illustrator 22.0.1, SVG Export Plug-In . SVG Version: 6.00 Build 0)  -->
<!DOCTYPE svg PUBLIC "-//W3C//DTD SVG 1.1//EN" "http://www.w3.org/Graphics/SVG/1.1/DTD/svg11.dtd">
<svg version="1.1" id="Layer_1" xmlns="http://www.w3.org/2000/svg" xmlns:xlink="http://www.w3.org/1999/xlink" x="0px" y="0px"
	 viewBox="0 0 289 289" enable-background="new 0 0 289 289" xml:space="preserve">
<g>
	<path fill="#FFFFFF" d="M270.5,288.5h-252c-9.9,0-18-8.1-18-18v-252c0-9.9,8.1-18,18-18h252c9.9,0,18,8.1,18,18v252
		C288.5,280.4,280.4,288.5,270.5,288.5z"/>
	<path fill-rule="evenodd" clip-rule="evenodd" fill="#1b365d" d="M194.3,116.4c-25.9-2.4-73.1,11.9-81.1,58
		c-1.5,8.8-0.2,18.2,1.9,24.2c-0.7,0-12.7,2.4-33.2-4.7c0,0-26.8,16-27.4,16.3c-0.6,0.3-2.2-0.7-2.3-1.2c-0.1-0.5,7.5-25.5,7.5-25.5
		C39,169,28.3,149.4,28.3,126.7c0-39.3,37.7-72.7,83-72C156.1,55.4,187.1,83.1,194.3,116.4z M90.6,103.3c0,6-4.8,10.8-10.8,10.8
		s-10.8-4.8-10.8-10.8s4.8-10.8,10.8-10.8S90.6,97.4,90.6,103.3z M155.8,103.3c0,6-4.8,10.8-10.8,10.8c-5.9,0-10.8-4.8-10.8-10.8
		s4.8-10.8,10.8-10.8C151,92.5,155.8,97.4,155.8,103.3z"/>
	<path fill-rule="evenodd" clip-rule="evenodd" fill="#1b365d" d="M236.2,228.8c0,0,6.5,19,6.4,19.8s-0.6,1.7-1.7,1.7
		c-1.1,0.1-21.2-12.1-21.2-12.1c-8.4,3.5-20.9,5.7-29.3,5.6c-41.6-0.2-72-28.2-72-61.9c0-33.7,31.9-60.1,71.9-60.1
		c37.8,0,70.3,25.8,70.3,59.5C260.7,200.4,253.5,215.3,236.2,228.8z M173.5,159.4c0,5.3-4.3,9.6-9.5,9.6c-5.3,0-9.5-4.3-9.5-9.6
		c0-5.3,4.3-9.6,9.5-9.6S173.5,154.1,173.5,159.4z M224.5,159.4c0,5.3-4.3,9.6-9.5,9.6c-5.3,0-9.5-4.3-9.5-9.6
		c0-5.3,4.3-9.6,9.5-9.6C220.2,149.8,224.5,154.1,224.5,159.4z"/>
</g>
</svg>
